<?xml version="1.0" encoding="utf-8"?>
<!-- Generator: Adobe Illustrator 16.0.0, SVG Export Plug-In . SVG Version: 6.00 Build 0)  -->
<!DOCTYPE svg PUBLIC "-//W3C//DTD SVG 1.1//EN" "http://www.w3.org/Graphics/SVG/1.1/DTD/svg11.dtd">
<svg version="1.1" id="Layer_1" xmlns="http://www.w3.org/2000/svg" xmlns:xlink="http://www.w3.org/1999/xlink" x="0px" y="0px"
	 width="1366px" height="657px" viewBox="0 0 1366 657" enable-background="new 0 0 1366 657" xml:space="preserve">
<rect display="none" fill="#C2EEF4" width="1366" height="657"/>
<path id="shadow1" fill="#91C0C1" d="M574.579,541.405c0,0,20.296-12.813,25.233-7.801c4.937,5.014-12.929,11.806-22.626,10.544
	C567.491,542.89,574.579,541.405,574.579,541.405z"/>
<path id="shadow2" fill="#91C0C1" d="M991.379,537.883c-21.053,11.252-43.386,13.712-67.103,13.953
	c-41.137,0.417-80.878-3.993-119.65-19.015c-3.858-1.496-8.296-2.759-11.579-5.419c-9.842-7.973-26.191-3.226-38.364-3.186
	c-6.913,0.022-29.322,2.106-33.153-6.209c0,0-0.3-12.668,11.399-5.498c11.7,7.169,55.566,4.273,60.189-2.199
	c0,0,20.409-13.154,24.335-12.279c3.927,0.878-36.071,20.533,16.591,15.519c52.66-5.013,10.833,9.775,9.804,6.559
	c-1.027-3.216-37.756,6.349-41.263-5.553s-5.494,18.439,53.87,21.7c59.363,3.261,85.12-3.441,90.337,0
	C952.008,539.697,991.379,537.883,991.379,537.883z"/>
<ellipse id="shadow3" fill="#91C0C1" cx="681.277" cy="560.984" rx="75.023" ry="9.123"/>
<g>
	<path fill="#FDFFD6" stroke="#5B2F16" stroke-miterlimit="10" d="M773.295,358.417c7.45,1.681,10.659,2.2,8.147,10.777
		c-1.835,6.267-4.332,12.082-6.918,18.048c-4.525,10.444-2.879,15.458,16.046,17.13c18.925,1.671-32.664,33.004-32.664,33.004
		c-17.441,2.925-2.306,22.143-2.306,22.143c11.284,15.698-22.147,14.308-28.796,16.532c0.511,4.537,4.813,8.708,7.32,12.369
		c3.769,5.482,7.55,10.951,11.602,16.217c10.285,13.371-16.868,7.104-16.868,7.104c0.411,7.938,2.469,15.04-2.056,13.787
		c-4.527-1.253-4.527,13.787-4.527,13.787c0,2.925,6.994,18.381-3.702,11.839s-16.868-2.231-16.868-2.231
		c-4.114,5.851-8.091,6.409-8.091,6.409c-5.99-1.751-6.799-7.228-11.662-8.621c-5.368-1.541-13.364,3.954-16.865,7.51
		c-7.128,7.236-8.774,2.175-8.774,2.175l-6.583-6.102c-1.646-1.142,0.548-4.432-22.491,3.924c-3.48,1.264-11.758,4.776-13.273-0.487
		c-0.561-1.989,2.514-5.777,1.623-7.277c-1.292-2.168-6.863,0.256-8.823,0.734c-3.881,0.942-7.802,1.761-11.777,2.155
		c-6.91,0.688-11.767-0.696-4.775-7.103c0,0,20.159-22.142,9.462-22.979c-10.684-0.833-21.188-11.253-12.9-14.609
		c2.465-0.997,7.3-2.928,6.71-6.234c6.174-6.313-11.621-5.412-7.386-11.323c0,0,9.462-2.509-20.571-11.282
		c0,0-3.702-0.834-3.702-3.342c0-2.506-44.844,9.191-28.799-5.431c16.045-14.622,4.526-16.711,2.057-18.382
		c-2.469-1.67-3.703-0.836,3.703-10.025c7.405-9.192-16.457-19.218,3.703-21.727c20.159-2.506,9.463-5.431,10.697-7.102
		c0.396-0.535-3.482-3.096-3.893-3.583c0.072,0.086,10.525,0.842,12.093,1.283c3.89,1.102,8.582,3.011,12.567,1.67
		c-0.136-3.069-2.707-9.58,1.859-10.649c-3.126-6.122-14.098-28.221-3.76-30.895c4.722-1.222,10.162-0.565,14.295-3.639
		c0.975-0.727,2.547-2.81,3.621-5.069c0,0-3.047-15.128,1.479-14.291c4.526,0.834,4.526,0.834,4.526,0.834s-1.234-7.518,0.411-8.772
		c1.646-1.253,18.925,1.671,15.222-11.697c-3.703-13.369,0-24.231,10.285-11.28c10.286,12.951,6.583-6.685,11.108-10.444
		c4.525-3.76,0-22.143,18.102-5.014c18.103,17.13,12.753-19.218,23.451,2.926c10.697,22.141,4.525,6.266,10.697,4.177
		c0,0,3.292,0.836-0.823,20.054c-4.114,19.217,22.625-6.266,25.923-2.086c5.439,6.893,3.257,14.064,3.597,22.043
		c8.702,0.061,13.798-15.392,24.376-8.679c6.583,4.178,11.108,8.356,9.874,10.444c0,0,11.52-13.369,14.811,8.356
		C763.006,355.492,765.884,356.746,773.295,358.417z"/>
	<g>
		<g>
			<path fill="#BA5320" d="M702.43,458.755c-1.929,3.582,0.997,10.581,2.082,14.042c1.889,6.024,5.093,11.459,6.924,17.461
				c3.548,11.608,3.05,25.531,2.115,37.581c3.218,17.119-9.365,15.561-9.365,15.561c-5.624,1.676-12.438-8.306-15.359-12.11
				c-4.107-5.349-7.259-12.06-13.596-14.782c-4.742-2.035-11.297-3.101-15.601,0.727c-5.535,4.923-5.676,13.388-6.538,20.35
				c-1.087,8.793-5.907,10.472-13.57,10.796c-8.996,0.381-12.865-16.475-15.079-23.327c-4.839-14.962-5.08-29.982-1.304-45.134
				c0.295-1.179,1.543-4.731,0.943-6.016c-1.084-2.319-1.771-0.341-3.438,0.446c-4.45,2.074-9.916,0.653-14.458-0.299
				c-5.665-1.188-11.344-3.369-16.111-6.891c-16.971-14.004,7.9-13.382,7.9-13.382c21.067-1.245,23.992-6.229,23.992-6.229
				c-3.589,0.315-6.979-0.146-10.368-1.462c-16.326-6.338-26.725-21.091-28.253-39.615c-2.656-32.209,22.548-78.988,55.308-81.962
				c30.456-2.763,67.319,15.361,79.816,46.699c2.711,6.802,7.89,26.361,0.636,32.148c0,0,21.944-15.567,10.534,12.754
				c-11.411,28.318-21.358,35.786-21.358,35.786L702.43,458.755z"/>
			<path fill="#512E24" d="M621.967,447.549c0,0,11.119,3.428,11.997,2.804c0,0,2.305,2.681-13.167-1.363L621.967,447.549z"/>
			<path fill="#512E24" d="M721.529,400.042c0,0-1.324-3.061-7.469,5.341c-6.471,8.852-14.271,16.888-21.981,24.503
				c-1.354,1.337-2.56,2.862-4.156,3.887c-0.233,0.151-2.606,1.178-2.599,1.457c0.037,1.654,7.206-3.27,7.688-3.69
				c2.344-2.061,4.474-4.488,6.665-6.729c5.778-5.911,11.592-11.832,17.073-18.057c0.786-0.896,4.194-3.835,4.023-5.277
				L721.529,400.042z"/>
			<g>
				<path fill="#FFCBA4" d="M645.813,447.549c0,0-43.011-1.087-48.277-32.829c0,0-6.292-24.118,7.46-46.835
					c0,0,16.386-25.521,35.989-28.942c0,0,34.818-2.488,52.082,18.048c0,0,20.134,17.367,17.262,38.591
					c0,0-0.585,24.869-27.211,40.752l-4.389,1.571c0,0-4.095,3.42-6.729-8.092c-2.632-11.518-4.681-22.719-4.681-22.719
					s2.048-5.915-4.974-4.668l-22.528,5.291L645.813,447.549z"/>
				<g>
					<path fill="#FFFFFF" stroke="#521810" stroke-miterlimit="10" d="M694.768,368.147c0,10.93-8,19.796-17.864,19.796
						c-9.869,0-17.868-8.866-17.868-19.796c0-10.934,7.999-19.796,17.868-19.796C686.768,348.352,694.768,357.214,694.768,368.147z"
						/>
					<path fill="#521810" d="M691.873,382.235c0.14-0.266,0.244-0.555,0.302-0.875c0.093-0.517-3.204,1.366-3.351,1.506
						c-7.9,7.593-18.196,3.798-18.196,3.798s-3.529,1.915-1.114,3.314c2.414,1.399,10.753,2.565,19.317-4.91
						C689.852,384.18,691.235,383.459,691.873,382.235"/>
					<path fill="none" stroke="#521810" stroke-miterlimit="10" d="M655.825,366.402c0,0,0.786-9.157,4.434-9.482"/>
					<path fill="#F95D41" d="M697.624,391.686c0.584,1.467-2.634,4.322-7.186,6.378s-8.719,2.53-9.306,1.065
						c-0.586-1.471,2.633-4.325,7.186-6.378C692.87,390.693,697.037,390.216,697.624,391.686z"/>
					<path fill="none" stroke="#521810" stroke-width="2" stroke-miterlimit="10" d="M648.901,350.155c0,0,6.589,1.983,10.133,0.478
						"/>
					<path fill="#521810" d="M685.064,368.196c-0.028,6.2-4.463,11.204-9.911,11.175c-5.447-0.027-9.841-5.073-9.813-11.272
						c0.027-6.199,4.462-11.202,9.911-11.176C680.697,356.95,685.091,361.998,685.064,368.196z"/>
				</g>
				<g>
					<path fill="#FFFFFF" stroke="#521810" stroke-miterlimit="10" d="M606.848,392.724c5.28,9.376,16.424,12.611,24.89,7.222
						c8.465-5.395,11.046-17.37,5.767-26.75c-5.283-9.38-16.427-12.612-24.892-7.221
						C604.146,371.367,601.565,383.345,606.848,392.724z"/>
					<path fill="#521810" d="M616.137,403.228c-0.248-0.151-0.479-0.343-0.681-0.588c-0.329-0.39,3.409-0.577,3.602-0.538
						c10.445,2.198,17.446-6.685,17.446-6.685s3.951-0.286,2.557,2.234c-1.396,2.52-7.985,8.075-18.944,6.345
						C618.811,403.787,617.274,403.928,616.137,403.228"/>
					<path fill="none" stroke="#521810" stroke-miterlimit="10" d="M629.314,361.657c0,0,8.286,2.621,7.868,6.49"/>
					<path fill="#F95D41" d="M625.473,410.901c0.321,1.558-3.33,3.739-8.16,4.875c-4.828,1.138-9.006,0.798-9.331-0.758
						c-0.324-1.56,3.329-3.742,8.16-4.877C620.97,409.003,625.147,409.343,625.473,410.901z"/>
					<path fill="#521810" d="M632.459,386.189c-0.027,6.199-4.464,11.203-9.91,11.177c-5.447-0.028-9.839-5.076-9.813-11.273
						c0.027-6.2,4.463-11.204,9.911-11.178C628.093,374.945,632.486,379.989,632.459,386.189z"/>
					<path fill="none" stroke="#521810" stroke-width="2" stroke-miterlimit="10" d="M620.766,360.362c0,0,6.463-2.411,8.548-5.811"
						/>
				</g>
				<g>
					<path fill="#EC957B" d="M640.425,405.852l22.529-5.293c0,0,6.437-0.933,4.975,4.666c0,0-23.877,6.133-26.714,5.868
						C638.377,410.826,637.389,406.563,640.425,405.852z"/>
					<path fill="#FFFFFF" d="M667.318,409.468c0.642,1.466,1.172-2.063,0-4.086c-1.17-2.026-26.104,5.711-26.104,5.711
						s-1.089,2.693,0,4.251C641.214,415.344,666.523,407.656,667.318,409.468z"/>
					<path fill="#FFFFFF" d="M646.271,445.075c-0.877-1.636-1.175,2.519,0.37,4.754c1.543,2.235,29.81-9.319,29.81-9.319
						s1.017-3.24-0.389-4.938C676.062,435.571,647.357,447.101,646.271,445.075z"/>
					<path fill="#E45A3C" d="M667.318,408.653c-0.823-4.429-25.29,6.445-25.29,6.445s2.654,27.173,4.755,30.201
						c1.309,1.882,6.657-0.179,8.2-0.639c4.237-1.262,8.405-2.87,12.44-4.731c2.349-1.084,4.548-2.75,6.936-3.682
						C674.359,436.248,669.66,421.256,667.318,408.653z"/>
				</g>
			</g>
			<path fill="#ED9B7C" stroke="#FFFFFF" stroke-miterlimit="10" d="M690.104,477.746c1.329,4.332,1.108,7.79-1.14,11.531
				c-2.802,4.668-6.498,8.082-11.217,10.219c-2.954,1.338-6.226,2.438-9.402,2.99c-5.278,0.917-10.815,0.809-15.988-1.044
				c-2.855-1.022-5.744-2.372-8.022-4.618c-2.644-2.605-3.953-6.208-4.735-9.909c-0.106-0.501-0.895-3.971,0.13-4.146
				c4.704-0.816,9.407-1.636,14.112-2.453c8.251-1.432,16.501-2.861,24.754-4.298c3.394-0.591,6.891-0.985,10.244-1.798
				C689.326,475.361,689.736,476.556,690.104,477.746z"/>
			<g>
				<path fill="#BA5320" d="M606.254,345.684c-7.567-7.776-34.949,0.352-34.949,0.352c-9.053,9.055,10.58,37.267,10.58,37.267
					s1.324,2.801,3.02-0.466C586.601,379.566,606.254,345.684,606.254,345.684z"/>
				<path fill="#4C2E25" d="M592.461,349.588c-4.219-3.376-17.278,2.362-17.278,2.362c-3.93,5.048,7.5,17.784,7.5,17.784
					s0.825,1.301,1.467-0.419C584.791,367.59,592.461,349.588,592.461,349.588z"/>
			</g>
			<g>
				<path fill="#BA5320" d="M704.979,348.957c10.819-1.567-3.469-35.858-3.469-35.858c-9.824-8.487-36.169,14.189-36.169,14.189
					S703.081,349.23,704.979,348.957z"/>
				<path fill="#4C2E25" d="M697.302,337.868c3.131-4.532-3.329-17.65-3.329-17.65c-5.26-3.763-17.33,8.718-17.33,8.718
					s-1.256,0.924,0.501,1.485C678.902,330.985,697.302,337.868,697.302,337.868z"/>
			</g>
		</g>
	</g>
</g>
<g>
	<path id="shadow" fill="#91C0C1" d="M567,546.566c0.895-0.789,7.322-0.955,7.931-0.095c3.13,4.431-15,11.338-17.851,12.051
		c-5,1.25-10.384,1.551-15.496,2.11c-3.157,0.345-8.95,1.845-12.026,0.352c-4.924-2.389-12.195-1.781-17.522-3.089
		c-3.608-0.885-7.41-2.003-10.517-4.111c-3.222-2.186-5.252-5.554-8.595-7.648c-2.89-1.81-6.025-3.317-9.008-4.972
		c-5.14-2.851-10.478-5.527-15.417-8.723c-3-1.941-53-4.559-58,0S355,557.73,350,558.115c-8.836,0.682-18.139,4.532-26.689,6.705
		c-14.523,3.691-29.116,6.547-43.92,8.771c-9.343,1.402-17.298-0.518-26.602-1.408c-5.038-0.482-10.219-0.248-15.267-0.055
		c-14.503,0.552-28.932,2.86-43.457,2.688c-28.699-0.339-61.863-2.541-89.681-9.735c-3.587-0.928-7.504-2.057-10.696-3.999
		c-2.63-1.602-4.424-4.138-7.018-5.786c-8.308-5.281-19.616-6.368-29.115-7.517c-10.833-1.31-22.296-1.899-33.173-0.685
		c-3.613,0.403-7.704,0.614-11.178,1.76c-4.601,1.518-8.79,5.441-13.73,5.931c-1.413,0.14-2.39,0.433-3.494-0.61
		c2.951-4.898,8.711-10.262,14.613-10.938c6.998-0.801,14.439-1.21,21.526-1.778c17.24-1.384,37.942-3.115,53.758,5.197
		c16.586,8.718,36.036,10.644,54.406,13.148c10.747,1.466,21.323,4.171,32.115,4.7c20.67,1.016,41.391,1.135,62.082,0.954
		c5.04-0.044,10.912,0.681,15.853-0.46c4.333-1,63,3.666,112.333-18.667s75.333-25.667,85.333-23s38.761,5,54.547,23.667
		s52.119,3.392,54.453,4.862C559.333,553.332,566.995,546.571,567,546.566z"/>
	<g>
		<path fill="#484848" d="M448.241,526.067c-7.461-0.331-14.976-0.089-22.37,0.769c-5.833,0.675-11.653,1.802-17.215,3.712
			c-14.239,6.569-28.536,13.107-42.994,19.185c-34.36,14.442-77.855,22.994-115.284,19.981c0,0-60.162,1.694-74.986,0.204
			c-16.897-1.699-33.934-2.701-50.622-5.996c-8.382-1.654-16.668-3.911-24.61-7.069c-7.871-3.127-14.455-8.82-23.073-9.968
			c-6.391-0.851-12.841-1.354-19.274-1.754c-15.31-0.948-31.927-2.024-46.971,1.581c-5.573,1.335-14.54,9.729-19.89,7.566
			c-10.925-4.416,1.708-11.483,6.896-13.122c14.815-4.688,32.485-4.427,47.855-4.345c14.844,0.08,29.188,0.214,43.129,5.898
			c3.876,1.579,7.682,3.384,11.605,5.187c5.471,2.516,11.266,4.339,17.103,5.792c11.116,2.768,22.489,4.177,33.843,5.595
			c15.1,1.885,30.323,3.1,45.546,3.288c15.217,0.188,30.433,0.225,45.652,0.107c39.689-0.312,80.904-1.694,117.997-17.325
			c17.562-7.4,34.138-17.426,52.272-23.445c23.495-7.801,58.317,1.113,58.317,1.113c23.154,8.268,42.646,32.37,68.808,29.662
			c10.238-1.063,21.505-5.532,29.575-11.829c17.959-14.009,35.537-46.291,29.75-69.401c-1.535-6.132-7.14-15.777-13.179-18.619
			c0,0-0.979,14.483-13.287,10.861c-6.401-1.885-12.624-4.354-18.798-6.867c-7.098-2.889-5.848-9.025-4.554-15.219
			c1.1-5.262,2.897-10.635,6.517-14.745c5.263-5.979,13.17-2.427,19.399-0.124c5.013,1.852,14.394,5.436,14.22,12.169
			c-0.28,10.861-0.839,8.633-0.839,8.633s29.723,11.704,11.645,59.886c0,0-13.157,34.281-32.198,41.984
			c-20.115,8.139-36.817,12.94-58.209,4.538c-14.811-5.817-26.719-17.984-41.277-24.011"/>
		<path fill="#312D2C" d="M548.412,450.001c-0.292-0.847-0.029-2.059,0.056-2.786c0.302-2.596,0.779-5.131,1.42-7.666
			c0.875-3.451,2.182-6.809,4.037-9.86c0.608-1.001,1.729-3.307,3.103-3.412c2.154-0.16,1.599,3.433,1.429,4.641
			c-0.625,4.458-2.148,8.702-3.45,12.993c-0.575,1.895-1.687,3.884-2.983,5.378c-0.633,0.729-1.809,2.047-2.935,1.509
			C548.74,450.628,548.531,450.346,548.412,450.001z"/>
	</g>
</g>
<g>
	<path fill="#2E2726" d="M726.691,353.416c0.042-0.052,0.09-0.103,0.149-0.146c0.762-0.564,2.101-0.261,2.976-0.239
		c2.909,0.069,5.821-0.072,8.723,0.215c5.166,0.512,10.42,1.67,14.869,4.511c1.274,0.811,2.484,1.743,3.557,2.816
		c0.823,0.826,2.275,1.581,2.676,2.732c0.589,1.696-2,1.898-3.034,2.1c-3.917,0.763-7.811-0.169-11.498-1.531
		c-3.738-1.38-7.249-3.244-10.888-4.855c-2.298-1.017-4.939-2.05-6.896-3.668C726.84,354.951,726.281,353.969,726.691,353.416z"/>
	<path id="shadow_4_" fill="#91C0C1" d="M814.297,497.99c0,0,47.174-16.027,57.598,5.059c1.046,2.118,4.758,9.247-0.258,6.15
		c-2.621-1.617-4.665-3.964-7.152-5.754c-3.062-2.207-6.117-2.537-9.719-3.168c-6.724-1.176-13.447-2.4-20.27-2.869
		c-2.653-0.18-5.659-0.474-8.268,0.254C819.027,499.677,814.297,497.99,814.297,497.99z"/>
	<path id="shadow_3_" fill="#91C0C1" d="M1363.334,524.926c-5.333-2.741-84.667,18.075-100,20.335s-61.333,5.74-64.667,0
		s-62.212-10.225-62.212-10.225c-19.053-5.839-45.36-0.947-63.19,0.557c-33.147,2.798-66.625,3.67-99.414,9.668
		c0,0-5.431-2.899-2.954-7.192c0,0,48.437-9.734,51.771-9.734s71.334-3.483,76.667-3.408s83.999,6.741,87.333,6.741
		s58.666,12.666,70,8s73.334-18,73.334-18s38.665-7.763,35.999-2.252S1363.334,524.926,1363.334,524.926z"/>
	<path fill="#454544" d="M1352.178,521.991c-3.433,0.788-7.262,0.675-9.687,1.38c-10.436,3.041-20.367,6.842-30.964,9.385
		c-25.994,6.238-52.94,11.136-79.518,12.154c-6.474,0.247-12.962-0.073-19.699-1.346c-8.179-1.548-16.065-3.961-24.14-5.895
		c-4.215-1.009-8.575-1.589-12.671-2.183c-20.051-2.908-40.545-3.537-60.773-3.798c-20.841-0.272-42.422-1.767-63.167-0.434
		c-21.865,1.405-43.703,4.394-65.406,7.334c-12.546,1.698-25.085,3.415-37.599,5.319c-17.877,3.416-38.206,2.759-56.324,2.224
		c-18.215-0.539-36.464-2.598-54.218-6.822c-11.616-2.764-42.381-8.876-45.188-24.65c-0.445-2.504,0.251-4.906,1.448-7.098
		c16.457-20.47,52.66-17.965,52.66-17.965c42.376,5.431,26.332,23.367,26.332,23.367c-7.037,4.675-15.703,7.892-24.156,7.646
		c-12.126-0.356-22.629-5.949-32.094-13.233c-9.655-7.437-13.299-19.083-21.643-27.479c-6.012-6.052-13.056-10.948-20.096-15.671
		c-6.407-4.297-13.187-8.305-20.022-11.859c-7.7-4.005-16.269-6.853-22.766-12.9c-3.858-3.593-7.198-7.52-10.35-11.699
		c-13.438-17.826,4.388-35.093,4.388-35.093s-3.291-2.229-8.777-6.686c-5.485-4.457,8.777-31.752,8.777-31.752
		s23.041,15.599,33.462,9.473c0,0-5.761,23.113-12.617,30.355c-6.857,7.242-10.97,0.558-14.536,0
		c-4.883,5.212-9.684,12.409-8.994,19.916c1.123,12.222,17.846,23.522,27.187,29.323c0,0,52.296,24.988,62.993,50.471
		c0,0,15.633,23.813,43.197,18.383s4.527-13.504-1.646-15.106c0,0-32.913-5.782-50.603,10.93
		c-12.308,11.623,22.212,20.941,28.639,22.669c37.907,10.183,76.297,11.822,114.945,5.322c12.951-1.827,25.928-3.484,38.899-5.16
		c22.119-2.854,44.312-5.423,66.547-7.109c21.12-1.602,43.215-0.007,64.423,0.41c20.385,0.4,41.054,0.9,61.275,3.765
		c3.547,0.5,8.235,0.848,12.35,2.046c0,0,25.193,5.774,37.496,6.548c0,0,44.929,1.075,75.833-11.687
		c7.604-2.338,15.306-4.424,23.037-6.279c6.104-1.466,12.996-3.646,19.625-4.191c0,0,18.099-6.752,20.566-0.068
		C1371.073,520.932,1372.026,517.436,1352.178,521.991z"/>
	<path id="shadow_2_" fill="#C8C7C5" d="M741.841,356.261c1.028-1.858,1.6-4.428,1.872-5.729c0.416-1.991-0.388-2.681-1.992-3.642
		c-1.162-0.693-2.592-2.044-3.976-2.221c-1.057-0.134-1.095,0.052-1.479,0.798c-4.388,8.493-3.566,10.024-3.566,10.024
		c1.724,1.099,4.082,2.683,6.106,2.937C740.103,358.594,741.092,357.614,741.841,356.261z"/>
	<path id="shadow_1_" fill="#C8C7C5" d="M754.32,360.438c1.027-1.857,1.6-4.427,1.871-5.729c0.416-1.99-0.387-2.681-1.991-3.64
		c-1.163-0.695-2.592-2.044-3.976-2.222c-1.058-0.133-1.097,0.053-1.479,0.797c-4.388,8.493-3.566,10.025-3.566,10.025
		c1.723,1.098,4.082,2.683,6.106,2.938C752.581,362.771,753.571,361.794,754.32,360.438z"/>
</g>
<g>
	<g>
		<path fill="#BA5320" d="M571.878,323.153c0,0-25.978-13.201-24.028-19.449c1.949-6.247,13.698-7.194,16.41-2.779
			C566.967,305.336,571.878,323.153,571.878,323.153z"/>
		<path fill="#BA5320" d="M567.614,326.317c0,0-17.736,5.321-19.504,1.554c-1.767-3.767,3.295-9.393,6.445-8.535
			C557.703,320.194,567.614,326.317,567.614,326.317z"/>
	</g>
	<g>
		<path fill="#BA5320" d="M799.196,389.671c0,0,21.104-15.813,25.258-11.66c4.151,4.152,0.087,14.141-4.523,14.546
			C815.325,392.962,799.196,389.671,799.196,389.671z"/>
		<path fill="#BA5320" d="M798.357,384.374c0,0,3.377-18.465,7.486-18.351c4.107,0.111,6.747,7.243,4.565,9.706
			C808.226,378.188,798.357,384.374,798.357,384.374z"/>
	</g>
	<g>
		<path fill="#BA5320" d="M725.583,291.974c0,0,3.797-17.851,8.293-19.063c4.495-1.211,7.345,4.424,4.942,7.357
			C736.419,283.201,725.583,291.974,725.583,291.974z"/>
		<path fill="#BA5320" d="M728.016,296.82c0,0,9.398-4.169,11.058-2.305c1.661,1.863-0.331,5.231-2.305,5.014
			C734.798,299.315,728.016,296.82,728.016,296.82z"/>
		<path fill="#BA5320" d="M736.201,289.254c0,0,9.4-4.168,11.059-2.305c1.662,1.864-0.332,5.231-2.305,5.015
			C742.984,291.748,736.201,289.254,736.201,289.254z"/>
	</g>
	<g>
		<path fill="#BA5320" d="M527.237,482.898c0,0-10.023,11.15-15.607,8.979c-5.584-2.168-7.103-8.482-3.4-9.085
			C511.932,482.188,527.237,482.898,527.237,482.898z"/>
		<path fill="#BA5320" d="M514.022,478.933c0,0-6.277-6.475-9.088-4.479c-2.809,1.99-3.102,6.355-1.073,6.396
			C505.893,480.896,514.022,478.933,514.022,478.933z"/>
		<path fill="#BA5320" d="M525.951,477.482c0,0-12.191-3.272-13.521-5.855c-1.335-2.583,2.032-3.807,4.248-2.278
			C518.888,470.878,525.951,477.482,525.951,477.482z"/>
	</g>
	<g>
		<path fill="none" stroke="#E5D6CF" stroke-miterlimit="10" d="M595.255,382.862c0,0,1.35,17.148-1.281,20.016
			c-2.629,2.869-5.659-0.92-4.738-4.454C590.157,394.897,595.255,382.862,595.255,382.862z"/>
		<path fill="none" stroke="#E5D6CF" stroke-miterlimit="10" d="M594.943,407.93c0,0,0.907,11.521-0.86,13.447
			c-1.767,1.927-3.803-0.619-3.183-2.992C591.519,416.015,594.943,407.93,594.943,407.93z"/>
	</g>
</g>
<g>
	<g>
		<ellipse id="shadow_5_" fill="#91C0C1" cx="115.572" cy="476.48" rx="16.541" ry="3.103"/>
		<g>
			<path fill="#533622" d="M118.061,452.28c0,0,0.293,1.924-4.687,1.446c-2.951-0.283-6.88,0.539-8.562,3.662
				c-1.295,2.409-2.239,4.77-2.112,7.664c0,0,0.116,0.88-0.608,0.003c-1.96-2.38-1.16-6.541,0.307-8.889
				c0.998-1.598,2.361-2.664,3.624-3.949c1.017-1.036,1.923-2.209,2.727-3.465c0,0,2.701-3.642-0.917-8.345
				c0,0-0.723-0.688,0.728,1.822s0.364,6.472-3.328,9.141c-3.692,2.67-7.872,7.35-5.518,13.634c1.566,4.181,2.818,4.434,3.481,4.134
				c0,0,4.238,4.01,5.426,2.996c0,0,9.771-3.451,9.33-6.344c0,0,6.153,0.974,7.689-2.057c0.536-1.056,1.374-1.872,2.32-2.425
				c0.664-0.388,2.124-1.038,2.866-0.561c0.389,0.25,1.01-1.479-2.94-2.063c0,0-2.764,0.239-3.146,1.388
				c-0.381,1.148-1.631-0.292-1.676-0.858s-0.325-1.241-0.325-1.241L118.061,452.28z"/>
			<path fill="#533622" d="M119.015,475.941l1.147-0.007c0,0,0.741-3.218-5.025-2.433c0,0-1.851,0.087-2.059-0.104"/>
			<path fill="#725039" d="M107.831,473.524c0.318,0.07,0.923-0.731,1.157-1.236c0,0-3.325-1.333-2.46-5.305l0.437-1.261
				c1.625-6.935,7.162-5.452,7.162-5.452c1.087,0.428,2.367,1.207,3.115,2.222c2.552,3.464,0.708,8.799-2.582,10.6
				c-0.299,0.163-1.348,0.672-1.685,0.343c0.008,0.007,0.521,0.499,3.208,0.172c2.708-0.328,2.833,2.335,2.833,2.335
				s-6.858-0.173-9.843,0.032c-2.986,0.204-2.494-0.995-2.053-1.375c0.055-0.048,0.093-0.101,0.119-0.156"/>
			<path fill="#A88269" d="M115.076,461.225c-5.031,3.457,1.845,6.177,1.845,6.177s-0.221,0.584-1.102,2.696
				c-0.881,2.113,0.002,2.161,0.002,2.161c1.839-1.438,2.416-4.231,2.416-4.231c1.077-5.133-2.758-7.079-2.758-7.079
				L115.076,461.225z"/>
		</g>
		<g>
			<g>
				
					<ellipse transform="matrix(-1 0.0053 -0.0053 -1 234.4602 892.9537)" fill="#725039" cx="116.05" cy="446.787" rx="3.788" ry="3.947"/>
				
					<ellipse transform="matrix(-1 0.0053 -0.0053 -1 236.4878 893.5887)" fill="#A88269" cx="117.065" cy="447.106" rx="2.775" ry="2.892"/>
			</g>
			<g>
				
					<ellipse transform="matrix(-1 0.0053 -0.0053 -1 259.0054 891.9708)" fill="#725039" cx="128.324" cy="446.328" rx="3.788" ry="3.947"/>
				
					<ellipse transform="matrix(-1 0.0051 -0.0051 -1 257.8645 893.4427)" fill="#A88269" cx="127.792" cy="447.05" rx="2.775" ry="2.891"/>
			</g>
		</g>
		<g>
			<path fill="#A88269" d="M126.599,450.966c0.04,0.294,0.069,0.584,0.094,0.865c0,0,0.955,2.828-0.695,4.851
				c0,0-1.096,1.989-3.256,1.293c0,0-2.125,0.86-3.669-1.113c0,0-1.876-1.943-0.896-4.986c0,0,0.205-0.631,0.287-1.008
				c0.081-0.378-0.259-2.03,0.813-3.311c1.072-1.28,2.856-1.195,2.856-1.195c0.792,0.08,1.591,0.215,2.331,0.563
				c1.061,0.5,1.712,1.693,1.855,2.956c0.028,0.24,0.118,0.695,0.025,0.929C126.26,451.015,126.599,450.966,126.599,450.966z"/>
			<path fill="#060100" d="M118.745,450.173c0.193,0.012,0.311,0.374,0.366,0.525c0.102,0.277,0.15,0.558,0.106,0.854
				c-0.037,0.231-0.065,0.83-0.327,0.887c-0.388,0.082-0.856-0.651-0.896-0.99c-0.028-0.244,0.058-0.6,0.189-0.802
				C118.184,450.646,118.508,450.158,118.745,450.173z"/>
			<path fill="#060100" d="M126.065,452.399c-0.211-0.026-0.324-0.395-0.378-0.551c-0.099-0.283-0.138-0.566-0.075-0.86
				c0.05-0.228,0.111-0.824,0.401-0.861c0.431-0.057,0.912,0.707,0.939,1.048c0.019,0.244-0.092,0.593-0.247,0.788
				C126.706,451.963,126.326,452.429,126.065,452.399z"/>
			<path fill="#2C2B2A" d="M122.069,454.885c0.521,0.422,0.974-0.171,0.974-0.171s0.313-1.11-0.532-1.438
				c0,0-0.884,0.359-0.567,1.443L122.069,454.885z"/>
			<rect x="122.155" y="456.547" fill="#FFFFFF" width="0.816" height="0.563"/>
			<path fill="#302F29" d="M121.855,456.068c0.295-0.079,0.659-0.627,0.659-0.627s0.541,0.729,0.759,0.729s-0.725,1.165-1.583,0.008
				L121.855,456.068z"/>
		</g>
	</g>
	<g>
		<path d="M126.154,434.389c0-0.432,0.256-0.744,0.604-0.744c0.368,0,0.603,0.313,0.603,0.744c0,0.42-0.235,0.743-0.603,0.743
			C126.4,435.132,126.154,434.809,126.154,434.389z M126.41,432.673l-0.143-5.757h0.981l-0.143,5.757H126.41z"/>
		<path d="M128.507,434.389c0-0.432,0.255-0.744,0.603-0.744c0.368,0,0.603,0.313,0.603,0.744c0,0.42-0.235,0.743-0.603,0.743
			C128.752,435.132,128.507,434.809,128.507,434.389z M128.762,432.673l-0.143-5.757h0.981l-0.143,5.757H128.762z"/>
		<path d="M130.858,434.389c0-0.432,0.256-0.744,0.604-0.744c0.368,0,0.603,0.313,0.603,0.744c0,0.42-0.235,0.743-0.603,0.743
			C131.104,435.132,130.858,434.809,130.858,434.389z M131.114,432.673l-0.143-5.757h0.981l-0.143,5.757H131.114z"/>
	</g>
</g>
<g>
</g>
<g>
</g>
<g>
</g>
<g>
</g>
<g>
</g>
<g>
</g>
</svg>
